<?xml version="1.0" encoding="utf-8"?>
<!-- Generator: Adobe Illustrator 15.0.0, SVG Export Plug-In . SVG Version: 6.00 Build 0)  -->
<!DOCTYPE svg PUBLIC "-//W3C//DTD SVG 1.1//EN" "http://www.w3.org/Graphics/SVG/1.1/DTD/svg11.dtd">
<svg version="1.1" id="Layer_1" xmlns="http://www.w3.org/2000/svg" xmlns:xlink="http://www.w3.org/1999/xlink" x="0px" y="0px"
	 width="240px" height="80px" viewBox="0 0 240 80" enable-background="new 0 0 240 80" xml:space="preserve">
<g id="guides" display="none">
</g>
<g>
	<path fill="#555555" d="M17.83,43.707v-8.051l-2.421,1.08c-0.001,0-0.617,1.383-0.51,3.389c0.085,1.567,0.962,3.442,1.635,4.228
		L17.83,43.707 M24.92,27.131c0.598,0.053,1.535,0.347,2.242,0.966c0.75,0.729,0.921,1.835,0.658,2.84
		c-0.233,0.896-0.496,1.36-1.409,1.979c-0.924,0.623-2.041,0.571-2.041,0.571v3.88l1.888,1.528l-1.888,1.523v5.286
		c0,0,1.892-1.084,3.064-3.512c0,0,0.048-0.133,0.159-0.383c0.104,0.65,0.044,1.967-0.691,3.656
		c-0.555,1.273-1.562,2.498-2.827,3.196c-2.24,1.242-3.921,1.361-5.723,0.987c-2.109-0.435-4.025-1.619-5.333-3.688
		c-0.919-1.453-1.33-3.146-1.293-4.969c0.074-3.578,2.735-6.664,5.808-7.814c0.374-0.141,0.523-0.233,1.054-0.281
		c-0.245,0.167-0.527,0.382-0.874,0.61c-0.99,0.65-1.837,1.944-2.199,2.941l5.963-2.66v8.337l-4.809,2.41
		c0.549,0.759,2.213,1.909,3.637,2.071c2.423,0.268,3.844-0.79,3.844-0.79v-5.4l-1.878-1.523l1.879-1.523v-3.885
		c-1.023-0.119-2.268-0.457-2.995-0.637c-1.069-0.263-4.635-1.265-5.195-1.348c-0.56-0.083-1.251-0.057-1.669,0.316
		c-0.418,0.377-0.678,1.041-0.499,1.637c0.101,0.338,0.333,0.536,0.51,0.729c0,0-0.206-0.018-0.579-0.241
		c-0.673-0.404-1.186-1.194-1.247-2.169c-0.079-1.277,0.447-2.428,1.5-3.2c0.916-0.588,1.951-0.966,3.154-0.795
		c1.756,0.25,4.117,1.242,6.221,1.747c0.814,0.198,1.445,0.264,2.019-0.07c0.267-0.193,0.736-0.689,0.353-1.348
		c-0.448-0.772-1.306-0.755-2.033-0.891C24.312,27.088,24.45,27.088,24.92,27.131z"/>
	<path fill="#555555" d="M48.126,41.608l-2.71,1.985v-6.603L48.126,41.608 M48.048,35.266c0,0-1.827,1.106-3.056,1.839
		c-1.229,0.729-2.876,1.532-2.876,1.532v7.682l-1.1,0.883l0.146,0.171l1.072-0.864l3.36,3.038l5.84-4.626l-0.138-0.168l-3.229,2.533
		l-2.652-2.484v-0.926l5.329-3.921L48.048,35.266z"/>
	<path fill="#555555" d="M32.74,52.434c0.767,0.189,2.119,0.295,3.75-0.522c1.806-0.904,2.714-2.823,2.701-4.789l0.077-2.787v-6.089
		l1.154-0.882l-0.135-0.171l-1.136,0.856l-2.622-2.915l-3.363,2.888v-9.815l-4.203,3.248c0.187,0.119,0.782,0.229,0.8,1.067v13.75
		l-1.779,1.32l0.122,0.185l0.859-0.642l2.394,2.226l3.768-2.997l-0.137-0.172l-0.886,0.702l-0.938-0.931l0.009-7.66l1.098-0.935
		l1.638,2.032c0,0-0.004,4.961,0.001,6.607c-0.013,1.755-0.019,3.945-0.941,5.004C34.05,52.074,33.68,52.158,32.74,52.434"/>
	<path fill="#555555" d="M58.888,51.74c-1.505-0.172-2.138-1.084-2.12-1.805c0.011-0.461,0.43-1.365,1.345-1.488
		c0.915-0.127,1.85,0.303,2.639,1.229l3.478-3.841l-0.168-0.149l-0.934,1.045c-0.948-1.08-2.295-1.761-3.636-1.958V33.07
		l9.03,16.449c0,0,0.086,0.188,0.458,0.188c0.319,0,0.242-0.259,0.242-0.259l-0.001-16.553c0.733-0.031,1.854-0.435,2.398-0.992
		c1.738-1.787,1.028-3.736,0.837-3.925c-0.106,0.852-0.761,1.708-1.854,1.712c-1.435,0.005-2.309-1.053-2.309-1.053l-3.475,3.959
		l0.166,0.149l0.996-1.137c1.215,1.12,2.103,1.225,3.021,1.286L69,42.5l-6.698-12.168c-0.605-1.005-1.529-1.887-2.977-1.9
		c-1.664-0.009-2.855,1.457-2.997,2.721c-0.161,1.427,0.017,1.756,0.017,1.756s0.245-1.589,1.229-1.576
		c0.883,0.013,1.343,0.825,1.697,1.436v3.524c-0.911,0.062-3.282,0.167-3.427,2.634c-0.011,0.917,0.559,1.879,1.058,2.204
		c0.642,0.42,1.143,0.412,1.143,0.412s-0.769-0.408-0.539-1.216c0.206-0.724,1.713-0.843,1.767-0.54v4.973
		c-0.725-0.008-3.045,0.071-4.092,2.06c-0.631,1.203-0.594,2.546,0.081,3.494C55.81,51.086,56.94,52.074,58.888,51.74"/>
	<path fill="#555555" d="M78.037,41.608l-2.709,1.985v-6.603L78.037,41.608 M77.96,35.266c0,0-1.828,1.106-3.057,1.839
		c-1.229,0.729-2.876,1.532-2.876,1.532v7.682l-1.099,0.883l0.146,0.171l1.071-0.864l3.36,3.038l5.84-4.626l-0.139-0.168
		l-3.227,2.533l-2.653-2.484l0.001-0.926l5.328-3.921L77.96,35.266z"/>
	<path fill="#555555" d="M86.123,49.603l-2.863-2.38l-1.258,0.914l-0.128-0.181l1.279-0.935V40.37
		c0.062-2.739-2.509-2.059-2.369-4.965c0.061-1.277,1.298-2.243,1.921-2.563c0.668-0.338,1.392-0.338,1.392-0.338
		s-1.172,0.733-0.888,1.787c0.438,1.624,3.215,1.769,3.268,3.933v7.546l2.051,1.643l0.539-0.422v-8.169l-1.105-1.097l2.847-2.52
		l2.601,2.305l-0.992,1.075v7.238l2.436,2.012l0.433-0.277v-8.714l-1.107-1.036l2.852-2.607l2.667,2.204l1.064-0.944l0.145,0.167
		l-2.397,2.107v7.103l-6.134,3.783l-3.139-2.484L86.123,49.603"/>
	<path fill="#555555" d="M211.685,41.608l-2.71,1.985v-6.603L211.685,41.608 M211.606,35.266c0,0-1.827,1.106-3.055,1.839
		c-1.229,0.729-2.877,1.532-2.877,1.532v7.682l-1.1,0.883l0.146,0.171l1.072-0.864l3.36,3.038l5.839-4.626l-0.138-0.168
		l-3.228,2.533l-2.653-2.484v-0.926l5.33-3.921L211.606,35.266z"/>
	<polyline fill="#555555" points="184.189,38.479 184.332,38.646 185.433,37.697 187.065,39.545 187.065,45.893 186.272,46.617 
		188.817,49.493 191.427,46.92 190.354,45.81 190.354,38.132 191.003,37.614 192.809,39.721 192.809,46.051 192.13,46.728 
		194.525,49.423 197.088,46.859 196.146,45.871 196.121,38.163 196.814,37.601 198.695,39.673 198.695,45.969 198.076,46.586 
		200.722,49.471 204.272,46.191 204.122,46.029 203.26,46.824 201.938,45.357 201.938,38.171 203.214,37.201 203.081,37.025 
		201.803,37.996 199.387,35.288 195.932,38.018 193.513,35.384 190.176,37.996 187.733,35.397 184.189,38.479 	"/>
	<polyline fill="#555555" points="176.96,38.281 177.104,38.448 178.033,37.645 179.486,39.365 179.486,46.621 178.461,47.518 
		178.604,47.684 179.68,46.767 182.024,49.471 185.411,46.447 185.27,46.279 184.271,47.157 182.871,45.542 182.871,38.448 
		184.052,37.425 183.909,37.258 182.787,38.224 180.32,35.349 176.96,38.281 	"/>
	<polyline fill="#555555" points="177.937,32.271 180.486,29.937 182.561,32.237 179.999,34.563 177.937,32.271 	"/>
	<path fill="#555555" d="M167.417,43.707v-8.051l-2.421,1.08c0,0-0.617,1.383-0.51,3.389c0.085,1.567,0.961,3.442,1.635,4.228
		L167.417,43.707 M174.507,27.131c0.598,0.053,1.535,0.347,2.242,0.966c0.751,0.729,0.921,1.835,0.658,2.84
		c-0.234,0.896-0.495,1.36-1.41,1.979c-0.923,0.623-2.04,0.571-2.04,0.571v3.88l1.889,1.528l-1.889,1.523v5.286
		c0,0,1.892-1.084,3.064-3.512c0,0,0.049-0.133,0.158-0.383c0.104,0.65,0.046,1.967-0.69,3.656
		c-0.555,1.273-1.562,2.498-2.827,3.196c-2.24,1.242-3.921,1.361-5.722,0.987c-2.11-0.435-4.025-1.619-5.333-3.688
		c-0.92-1.453-1.332-3.146-1.293-4.969c0.073-3.578,2.735-6.664,5.808-7.814c0.373-0.141,0.522-0.233,1.054-0.281
		c-0.245,0.167-0.528,0.382-0.875,0.61c-0.988,0.65-1.837,1.944-2.199,2.941l5.963-2.66v8.337l-4.808,2.41
		c0.548,0.759,2.212,1.909,3.637,2.071c2.422,0.268,3.844-0.79,3.844-0.79v-5.4l-1.877-1.523l1.877-1.523v-3.885
		c-1.023-0.119-2.268-0.457-2.994-0.637c-1.07-0.263-4.637-1.265-5.196-1.348c-0.56-0.083-1.251-0.057-1.669,0.316
		c-0.419,0.377-0.678,1.041-0.499,1.637c0.101,0.338,0.333,0.536,0.509,0.729c0,0-0.206-0.018-0.579-0.241
		c-0.673-0.404-1.186-1.194-1.247-2.169c-0.078-1.277,0.447-2.428,1.501-3.2c0.916-0.588,1.951-0.966,3.155-0.795
		c1.755,0.25,4.116,1.242,6.22,1.747c0.815,0.198,1.445,0.264,2.019-0.07c0.267-0.193,0.736-0.689,0.353-1.348
		c-0.448-0.772-1.306-0.755-2.033-0.891C173.899,27.088,174.037,27.088,174.507,27.131z"/>
	<path fill="#555555" d="M219.207,36.75v3.815l1.271,1.105c0,0,2.758-2.208,3.76-4.253c0,0-1.239,1.682-2.908,1.168
		C219.932,38.158,219.207,36.75,219.207,36.75 M216.128,46.863c0,0,1.208-1.998,3.282-1.567c1.99,0.413,2.682,2.516,2.682,2.516
		v-4.841l-1.389-1.209C219.178,43.295,216.464,45.512,216.128,46.863z M218.105,50.537c-0.387,0.114-2.069-0.294-2.473-2.036
		c-0.393-1.699,0.786-2.849,2.567-4.657l-2.104-1.924V38.25c0,0,1.547-0.773,2.757-1.528c1.212-0.759,2.451-1.58,2.451-1.58
		s0.903,1.142,1.925,1.049c1.599-0.141,1.524-1.401,1.479-1.699c0.272,0.487,1.003,1.936-1.806,5.175l2.288,1.848v4.768
		c0,0-2.658,1.383-5.172,3.219c0,0-1.404-1.756-2.623-0.918C216.573,49.15,216.95,50.107,218.105,50.537z"/>
	<path fill="#555555" d="M126.132,45.116l2.956,2.673v-8.182l-2.956-2.735V45.116 M132.226,38.435l1.03-0.948l0.147,0.167
		l-1.004,0.931v7.581c0,0-1.906,1.011-3.236,1.761c-1.329,0.75-2.75,1.633-2.75,1.633l-3.497-2.945l-0.925,0.803l-0.149-0.167
		l0.972-0.847V38.25h0.013c0,0,1.65-0.747,3.042-1.532c1.244-0.703,2.637-1.515,2.637-1.515L132.226,38.435z"/>
	<path fill="#555555" d="M139.103,37.667l2.221-2.269c0,0,0.306,0.268,0.591,0.408c0.163,0.079,0.835,0.426,1.452,0.088
		c0.334-0.185,0.383-0.233,0.749-0.58c0.075,1.765-0.772,3.007-1.829,3.52c-0.434,0.211-1.697,0.615-3.019-0.996v8.156l1.406,1.243
		l1.174-0.971l0.136,0.172l-3.677,3.068l-2.796-2.546l-1.007,0.948l-0.165-0.176l1.533-1.383l0.012-7.041l-1.175-1.559l-1.012,0.892
		l-0.146-0.163l3.561-3.2L139.103,37.667"/>
	<path fill="#555555" d="M148.468,41.064l4.107-5.975c0,0,0.541,0.641,1.485,0.891c1.282,0.333,2.402-0.904,2.402-0.904
		c-0.214,1.598-1.024,3.411-2.697,3.687c-1.474,0.246-2.844-0.9-2.844-0.9l-0.267,0.413l5.702,8.612l1.141-1l0.147,0.166
		l-3.913,3.42L148.468,41.064"/>
	<path fill="#555555" d="M145.075,33.088c0-1.291-0.528-2.085-1.22-2.028l4.48-3.147v17.814h0.001l1.183,1.246l0.896-0.777
		l0.142,0.168l-3.61,3.151l-2.446-2.296l-0.979,0.861l-0.154-0.168l1.708-1.487L145.075,33.088"/>
	<path fill="#555555" d="M116.308,38.097c0,0-0.494,0.562-1.272,0.562c-0.779,0-1.288-0.566-1.288-0.566v2.44
		c0,0,0.509-0.566,1.288-0.566c0.778,0,1.272,0.535,1.272,0.535V38.097 M116.308,32.869l-1.728-1.519l-0.834,0.658v5.72
		c0,0,0.514,0.649,1.292,0.649c0.779,0,1.27-0.623,1.27-0.623V32.869z M113.746,49.071c0,0,1.044,0.276,1.806-0.347
		c0.845-0.698,0.756-1.677,0.756-1.677v-6.173c0,0-0.49-0.632-1.27-0.632c-0.778,0-1.292,0.654-1.292,0.654V49.071z M107.62,32.794
		c0-1.203-0.488-1.875-1.279-1.892c-1.139-0.026-1.409,1.581-1.409,1.581s-0.207-1.238,0.829-2.362
		c0.582-0.627,1.669-1.51,3.368-1.102c1.755,0.425,2.254,1.786,2.254,2.989V48.58c0,0,0.662,0.078,1.117,0.18
		c0.528,0.109,1.028,0.25,1.028,0.25V29.028h0.218v2.695l3.599-2.897l2.636,2.344l1.229-1.062l0.141,0.167l-1.285,1.106v15.408
		c-0.064,1.005-0.226,2.027-1.175,2.616c-2.117,1.255-4.672-0.192-6.947-0.522c-1.688-0.25-4.34-0.57-5.005,0.979
		c-0.218,0.51-0.202,1.295,0.563,1.809c1.537,1.027,8.384-1.725,10.731-0.633c2.141,0.997,2.132,2.572,1.802,3.657
		c-0.556,2.032-3.122,2.388-3.122,2.388s1.255-0.729,0.897-1.936c-0.182-0.61-0.596-0.781-1.939-0.633
		c-2.935,0.334-6.441,1.756-8.799,0.77c-1.215-0.506-2.073-2.024-1.99-3.517c0.061-2.147,2.539-2.994,2.539-2.994l-0.001-7.941
		c-0.07-0.315-1.394-0.232-1.683,0.351c-0.439,0.883,0.547,1.287,0.547,1.287s-0.817,0.123-1.503-0.668
		c-0.333-0.387-1.03-1.738-0.124-2.989c0.745-1.032,1.638-1.211,2.764-1.334V32.794L107.62,32.794z"/>
</g>
</svg>
