<?xml version="1.0" encoding="utf-8"?>
<!-- Generator: Adobe Illustrator 15.0.0, SVG Export Plug-In . SVG Version: 6.00 Build 0)  -->
<!DOCTYPE svg PUBLIC "-//W3C//DTD SVG 1.1//EN" "http://www.w3.org/Graphics/SVG/1.1/DTD/svg11.dtd">
<svg version="1.1" id="Layer_1" xmlns="http://www.w3.org/2000/svg" xmlns:xlink="http://www.w3.org/1999/xlink" x="0px" y="0px"
	 width="240px" height="80px" viewBox="0 0 240 80" enable-background="new 0 0 240 80" xml:space="preserve">
<g id="guides" display="none">
</g>
<g>
	<path fill="#555555" d="M102.167,34.292c-0.694-0.366-1.766-0.72-3.214-1.062c-1.449-0.342-2.361-0.671-2.736-0.986
		c-0.295-0.248-0.442-0.547-0.442-0.896c0-0.382,0.157-0.688,0.473-0.916c0.49-0.355,1.167-0.533,2.032-0.533
		c0.838,0,1.467,0.166,1.886,0.498s0.692,0.877,0.82,1.635l2.978-0.131c-0.047-1.354-0.538-2.438-1.474-3.25
		s-2.329-1.217-4.18-1.217c-1.134,0-2.101,0.171-2.902,0.513c-0.802,0.342-1.416,0.84-1.841,1.494s-0.639,1.357-0.639,2.108
		c0,1.167,0.453,2.156,1.358,2.968c0.644,0.577,1.764,1.063,3.36,1.459c1.241,0.308,2.036,0.523,2.384,0.644
		c0.51,0.181,0.867,0.394,1.071,0.639c0.205,0.245,0.307,0.542,0.307,0.89c0,0.543-0.243,1.018-0.729,1.423
		c-0.486,0.407-1.209,0.609-2.168,0.609c-0.905,0-1.625-0.228-2.158-0.684c-0.533-0.456-0.887-1.17-1.061-2.143l-2.897,0.282
		c0.194,1.65,0.791,2.906,1.791,3.767c1,0.862,2.431,1.293,4.296,1.293c1.281,0,2.351-0.179,3.209-0.538
		c0.858-0.358,1.522-0.906,1.992-1.645c0.47-0.738,0.704-1.529,0.704-2.375c0-0.932-0.196-1.715-0.588-2.349
		C103.404,35.157,102.861,34.658,102.167,34.292z M143.765,34.292c-0.694-0.366-1.766-0.72-3.214-1.062
		c-1.449-0.342-2.361-0.671-2.736-0.986c-0.296-0.248-0.443-0.547-0.443-0.896c0-0.382,0.157-0.688,0.473-0.916
		c0.49-0.355,1.167-0.533,2.033-0.533c0.838,0,1.467,0.166,1.885,0.498c0.42,0.332,0.693,0.877,0.82,1.635l2.979-0.131
		c-0.047-1.354-0.539-2.438-1.475-3.25s-2.328-1.217-4.18-1.217c-1.134,0-2.102,0.171-2.902,0.513
		c-0.802,0.342-1.416,0.84-1.842,1.494s-0.639,1.357-0.639,2.108c0,1.167,0.453,2.156,1.359,2.968
		c0.644,0.577,1.764,1.063,3.359,1.459c1.24,0.308,2.035,0.523,2.385,0.644c0.51,0.181,0.867,0.394,1.071,0.639
		c0.204,0.245,0.307,0.542,0.307,0.89c0,0.543-0.243,1.018-0.729,1.423c-0.486,0.407-1.209,0.609-2.168,0.609
		c-0.905,0-1.625-0.228-2.158-0.684c-0.533-0.456-0.887-1.17-1.061-2.143l-2.898,0.282c0.195,1.65,0.792,2.906,1.791,3.767
		c1,0.862,2.432,1.293,4.296,1.293c1.28,0,2.351-0.179,3.21-0.538c0.857-0.358,1.521-0.906,1.991-1.645
		c0.47-0.738,0.704-1.529,0.704-2.375c0-0.932-0.195-1.715-0.588-2.349S144.459,34.658,143.765,34.292z M160.559,42.4h3.117V27.65
		h-3.117V42.4z M174.5,37.5l-6.267-9.85h-3.008v14.749h2.872v-9.618l6.173,9.618h3.102V27.65H174.5V37.5z M155.928,33.456h-5.953
		V27.65h-3.039V42.4h3.039v-6.45h5.953v6.45h3.039V27.65h-3.039V33.456z M126.295,27.65l-5.428,14.749h2.984l1.15-3.35h5.571
		l1.217,3.35h3.062l-5.581-14.749H126.295z M125.867,36.564l1.883-5.473l1.92,5.473H125.867z M112.898,37.833l-3.19-10.183h-4.734
		v14.928h3.074V32.342l3.241,10.236h3.186l3.252-10.236v10.236h3.074V27.65h-4.746L112.898,37.833z M185.886,36.321l0.063,0.052
		l1.932,1.932l1.598-0.179c-0.838,0.911-2.035,1.484-3.367,1.484c-2.527,0-4.584-2.057-4.584-4.585s2.057-4.584,4.584-4.584
		c1.623,0,3.049,0.851,3.864,2.126l2.69-0.921c-1.227-2.372-3.699-3.995-6.555-3.995c-4.072,0-7.373,3.302-7.373,7.375
		s3.301,7.375,7.373,7.375c2.025,0,3.859-0.817,5.191-2.139l-0.053,1.413l1.848,1.848l1.504-8.592L185.886,36.321z"/>
	<path fill="#555555" d="M126.152,51.631h2.525v1.59c-0.277,0.242-0.65,0.449-1.119,0.624c-0.47,0.175-0.93,0.263-1.377,0.263
		c-0.939,0-1.702-0.285-2.289-0.855c-0.586-0.568-0.879-1.425-0.879-2.567c0-0.751,0.137-1.386,0.41-1.907
		c0.275-0.521,0.637-0.904,1.088-1.151c0.45-0.247,0.988-0.37,1.613-0.37c0.428,0,0.814,0.068,1.158,0.203
		c0.343,0.137,0.619,0.324,0.83,0.562c0.209,0.239,0.383,0.6,0.521,1.081l1.023-0.28c-0.153-0.609-0.383-1.089-0.688-1.438
		c-0.305-0.349-0.693-0.619-1.166-0.81c-0.472-0.189-1.022-0.285-1.652-0.285c-0.854,0-1.592,0.164-2.217,0.492
		s-1.13,0.838-1.516,1.53c-0.387,0.692-0.58,1.505-0.58,2.437c0,0.922,0.192,1.711,0.576,2.367s0.904,1.156,1.562,1.498
		s1.406,0.514,2.246,0.514c0.629,0,1.242-0.112,1.838-0.336c0.207-0.077,0.412-0.174,0.615-0.277v0.521h1.111v-1.24
		c0.002,0,0.003-0.002,0.004-0.003v-3.175l-3.641,0.006V51.631z M98.88,52.383c-0.205,0.598-0.358,1.055-0.458,1.369l-0.408-1.265
		l-2.041-6.047h-1.71v8.54h1.094v-7.266l2.492,7.266h1.022l2.507-7.143v7.143h1.094v-8.54h-1.531L98.88,52.383z M111.818,46.44
		l-3.099,8.54h1.121l0.874-2.586h3.381l0.935,2.586h1.217l-3.291-8.54H111.818z M111.024,51.474l0.894-2.505
		c0.189-0.54,0.336-1.084,0.44-1.631c0.12,0.454,0.31,1.044,0.568,1.771l0.835,2.365H111.024z M138.795,46.44l-3.1,8.54h1.121
		l0.874-2.586h3.38l0.936,2.586h1.217l-3.291-8.54H138.795z M138.001,51.474l0.894-2.505c0.19-0.54,0.338-1.084,0.441-1.631
		c0.119,0.454,0.309,1.044,0.567,1.771l0.835,2.365H138.001z M175.477,53.159l-4.226-6.719h-1.089v8.54h1.021v-6.72l4.219,6.72h1.09
		v-8.54h-1.016V53.159z M184.855,53.973v-2.906h4.445v-1.008h-4.445v-2.61h4.746V46.44h-5.809v8.54h5.996v-1.008H184.855z
		 M161.798,54.98h1.063v-8.54h-1.063V54.98z M150.743,53.373l4.505-5.925V46.44h-5.756v1.008h4.486
		c-0.271,0.295-0.551,0.633-0.835,1.014l-4.112,5.47v1.049h6.351v-1.008h-5.127L150.743,53.373z"/>
	<path fill="#555555" d="M65.759,40.875c-5.132-1.939-9.443-5.402-9.729-9.909c-0.183-2.875,0.542-5.387,2.412-7.501l-7.636,1.826
		c-1.534,0.367-2.48,1.908-2.114,3.442L55.044,55.3c0.367,1.534,1.908,2.48,3.442,2.114l3.27-0.782
		c-1.269-0.421-3.463-1.222-5.565-2.343l3.048-6.915c0,0,3.587,3.194,8.738,3.194S75.417,44.523,65.759,40.875z M87.167,47.618
		l-6.353-26.566c-0.367-1.534-1.908-2.48-3.442-2.114L71.9,20.247c1.395,0.22,4.158,0.824,7.201,2.421l-2.382,6.604
		c0,0-1.983-2.215-7.3-2.484c-5.055-0.256-7.866,5.212,1.992,8.436c7.547,2.468,9.962,7.226,9.837,11.626
		c-0.065,2.288-0.866,4.147-1.793,5.551l5.599-1.339C86.587,50.694,87.534,49.152,87.167,47.618z"/>
	<path fill="#555555" d="M80.12,21.218c-0.274-1.148-1.433-1.86-2.582-1.585l-3.971,0.95c1.475,0.357,3.438,0.985,5.535,2.085
		l-2.382,6.604c0,0-1.983-2.215-7.3-2.484c-5.055-0.256-7.866,5.212,1.992,8.436c2.583,0.845,4.563,1.958,6.048,3.232
		c0.058-0.02,0.115-0.037,0.173-0.058c1.919-0.702,3.761-3.213,5.112-6.208L80.12,21.218z M56.029,30.966
		c-0.157-2.474,0.355-4.68,1.693-6.595l-6.751,1.614c-1.148,0.274-1.86,1.433-1.585,2.582l3.65,15.265
		c1.151-1.422,3.913-4.346,7.904-5.442C58.163,36.463,56.218,33.942,56.029,30.966z"/>
</g>
</svg>
